<?xml version="1.0" encoding="UTF-8"?>
<svg version="1.1" xmlns="http://www.w3.org/2000/svg" width="512" height="512">
<path d="M0 0 C1.94387329 -0.00543661 3.88774245 -0.0125678 5.831604 -0.02124023 C11.0548257 -0.03929368 16.27772722 -0.03248126 21.50095367 -0.01972389 C27.00178302 -0.00950204 32.50258739 -0.0190148 38.00341797 -0.02526855 C47.23605198 -0.03251847 56.46855744 -0.02302734 65.70117188 -0.00390625 C76.33154288 0.01785727 86.96160686 0.01080401 97.59197044 -0.01121187 C106.7662383 -0.02944194 115.94041445 -0.03188721 125.1146946 -0.0214572 C130.57340136 -0.01526388 136.03196445 -0.01427066 141.49066162 -0.02760315 C146.62587398 -0.03927249 151.76069565 -0.03093641 156.89586639 -0.00802612 C158.76533107 -0.00279762 160.63482941 -0.00415036 162.50428009 -0.01307678 C189.05425679 -0.12803129 213.28196807 7.11969184 233.8828125 24.51757812 C234.69492187 25.195625 235.50703125 25.87367187 236.34375 26.57226562 C256.23049153 43.7666483 269.60304271 68.60088714 272.11103249 94.91179657 C272.46253397 100.81668069 272.42862424 106.72183212 272.40039062 112.63476562 C272.40582724 114.57863892 272.41295843 116.52250808 272.42163086 118.46636963 C272.43968431 123.68959132 272.43287188 128.91249285 272.42011452 134.1357193 C272.40989267 139.63654865 272.41940542 145.13735301 272.42565918 150.63818359 C272.43290909 159.8708176 272.42341797 169.10332307 272.40429688 178.3359375 C272.38253336 188.96630851 272.38958661 199.59637249 272.4116025 210.22673607 C272.42983256 219.40100393 272.43227783 228.57518008 272.42184782 237.74946022 C272.41565451 243.20816698 272.41466129 248.66673007 272.42799377 254.12542725 C272.43966312 259.2606396 272.43132703 264.39546128 272.40841675 269.53063202 C272.40318824 271.4000967 272.40454098 273.26959504 272.41346741 275.13904572 C272.55166644 307.05759457 261.22141311 333.15640765 239.37109375 356.16210938 C217.58796903 377.34478043 189.37603853 385.17654278 159.765625 385.03515625 C157.82175171 385.04059286 155.87788255 385.04772405 153.934021 385.05639648 C148.7107993 385.07444993 143.48789778 385.06763751 138.26467133 385.05488014 C132.76384198 385.04465829 127.26303761 385.05417105 121.76220703 385.0604248 C112.52957302 385.06767472 103.29706756 385.05818359 94.06445312 385.0390625 C83.43408212 385.01729898 72.80401814 385.02435224 62.17365456 385.04636812 C52.9993867 385.06459819 43.82521055 385.06704346 34.6509304 385.05661345 C29.19222364 385.05042013 23.73366055 385.04942691 18.27496338 385.0627594 C13.13975102 385.07442874 8.00492935 385.06609266 2.86975861 385.04318237 C1.00029393 385.03795387 -0.86920441 385.03930661 -2.73865509 385.04823303 C-34.65720394 385.18643207 -60.75601703 373.85617874 -83.76171875 352.00585938 C-104.94438981 330.22273465 -112.77615215 302.01080416 -112.63476562 272.40039062 C-112.64020224 270.45651733 -112.64733343 268.51264817 -112.65600586 266.56878662 C-112.67405931 261.34556493 -112.66724688 256.1226634 -112.65448952 250.89943695 C-112.64426767 245.3986076 -112.65378042 239.89780324 -112.66003418 234.39697266 C-112.66728409 225.16433865 -112.65779297 215.93183318 -112.63867188 206.69921875 C-112.61690836 196.06884774 -112.62396161 185.43878376 -112.6459775 174.80842018 C-112.66420756 165.63415232 -112.66665283 156.45997617 -112.65622282 147.28569603 C-112.65002951 141.82698927 -112.64903629 136.36842618 -112.66236877 130.909729 C-112.67403812 125.77451665 -112.66570203 120.63969497 -112.64279175 115.50452423 C-112.63756324 113.63505955 -112.63891598 111.76556121 -112.64784241 109.89611053 C-112.78604144 77.97756168 -101.45578811 51.8787486 -79.60546875 28.87304688 C-57.82234403 7.69037582 -29.61041353 -0.14138653 0 0 Z M-54.47265625 66.25585938 C-66.6668133 82.43084819 -69.73706809 99.2241779 -69.63476562 118.97070312 C-69.64020147 120.75989345 -69.64733225 122.54907928 -69.65600586 124.33825684 C-69.67406844 129.14826166 -69.66724308 133.95791904 -69.65448952 138.76792908 C-69.64427248 143.83194834 -69.65377912 148.89594035 -69.66003418 153.95996094 C-69.66728547 162.45968904 -69.65778934 170.95927753 -69.63867188 179.45898438 C-69.61690805 189.24753128 -69.62396121 199.03574476 -69.6459775 208.8242836 C-69.66420362 217.26982577 -69.66665475 225.71526831 -69.65622282 234.16082382 C-69.65002735 239.1869019 -69.64904234 244.21282392 -69.66236877 249.2388916 C-69.67403233 253.96697891 -69.66571244 258.69464166 -69.64279175 263.42268372 C-69.63756019 265.14463094 -69.63892145 266.86661469 -69.64784241 268.58854675 C-69.74921022 290.16504371 -64.64451446 308.67656779 -49.1171875 324.51757812 C-32.74552883 338.60047425 -14.59016973 342.14356988 6.3359375 342.03515625 C8.12512782 342.0405921 9.91431366 342.04772287 11.70349121 342.05639648 C16.51349604 342.07445907 21.32315342 342.0676337 26.13316345 342.05488014 C31.19718271 342.0446631 36.26117473 342.05416974 41.32519531 342.0604248 C49.82492341 342.0676761 58.32451191 342.05817996 66.82421875 342.0390625 C76.61276565 342.01729868 86.40097914 342.02435183 96.18951797 342.04636812 C104.63506015 342.06459424 113.08050269 342.06704537 121.5260582 342.05661345 C126.55213627 342.05041797 131.57805829 342.04943297 136.60412598 342.0627594 C141.33221328 342.07442296 146.05987604 342.06610307 150.78791809 342.04318237 C152.50986531 342.03795082 154.23184907 342.03931208 155.95378113 342.04823303 C177.53027809 342.14960085 196.04180217 337.04490509 211.8828125 321.51757812 C225.96570862 305.14591945 229.50880425 286.99056036 229.40039062 266.06445312 C229.40582647 264.2752628 229.41295725 262.48607697 229.42163086 260.69689941 C229.43969344 255.88689459 229.43286808 251.07723721 229.42011452 246.26722717 C229.40989748 241.20320791 229.41940412 236.1392159 229.42565918 231.07519531 C229.43291047 222.57546721 229.42341434 214.07587872 229.40429688 205.57617188 C229.38253305 195.78762497 229.38958621 185.99941149 229.4116025 176.21087265 C229.42982862 167.76533048 229.43227975 159.31988794 229.42184782 150.87433243 C229.41565235 145.84825435 229.41466734 140.82233233 229.42799377 135.79626465 C229.43965733 131.06817734 229.43133744 126.34051459 229.40841675 121.61247253 C229.40318519 119.89052531 229.40454645 118.16854156 229.41346741 116.4466095 C229.51483522 94.87011254 224.41013946 76.35858846 208.8828125 60.51757812 C192.51115383 46.434682 174.35579473 42.89158637 153.4296875 43 C151.64049718 42.99456415 149.85131134 42.98743338 148.06213379 42.97875977 C143.25212896 42.96069718 138.44247158 42.96752255 133.63246155 42.98027611 C128.56844229 42.99049315 123.50445027 42.98098651 118.44042969 42.97473145 C109.94070159 42.96748015 101.44111309 42.97697629 92.94140625 42.99609375 C83.15285935 43.01785757 73.36464586 43.01080442 63.57610703 42.98878813 C55.13056485 42.97056201 46.68512231 42.96811088 38.2395668 42.9785428 C33.21348873 42.98473828 28.18756671 42.98572328 23.16149902 42.97239685 C18.43341172 42.96073329 13.70574896 42.96905318 8.97770691 42.99197388 C7.25575969 42.99720543 5.53377593 42.99584417 3.81184387 42.98692322 C-18.70509733 42.88113713 -39.20452116 48.50633583 -54.47265625 66.25585938 Z " fill="#218BE6" transform="translate(176.1171875,63.482421875)"/>
<path d="M0 0 C18.03421627 15.94784894 29.42960335 35.01609277 35.46484375 58.1796875 C35.83416016 59.57960937 35.83416016 59.57960937 36.2109375 61.0078125 C42.04172042 88.51302295 35.62632795 117.91664673 20.48828125 141.26171875 C4.14255848 164.83363942 -17.97414388 179.99870643 -45.53515625 187.1796875 C-46.93507813 187.54900391 -46.93507813 187.54900391 -48.36328125 187.92578125 C-75.87196078 193.75729957 -105.24174086 187.12244787 -128.76611328 172.34423828 C-133.35836785 169.32118359 -137.48815987 165.8899444 -141.53515625 162.1796875 C-142.45941406 161.33664062 -143.38367188 160.49359375 -144.3359375 159.625 C-159.71740739 144.9455889 -169.22044933 126.57783389 -174.53515625 106.1796875 C-174.78136719 105.24640625 -175.02757812 104.313125 -175.28125 103.3515625 C-181.11203292 75.84635205 -174.69664045 46.44272827 -159.55859375 23.09765625 C-143.21287098 -0.47426442 -121.09616862 -15.63933143 -93.53515625 -22.8203125 C-92.601875 -23.06652344 -91.66859375 -23.31273437 -90.70703125 -23.56640625 C-58.64748413 -30.36265527 -24.86748682 -20.71618837 0 0 Z M-112.53515625 35.1796875 C-124.8663498 47.11125904 -132.48914488 61.48720846 -132.82739258 78.78222656 C-132.89674749 88.69914367 -132.53067669 96.97034039 -128.53515625 106.1796875 C-128.17292969 107.05496094 -127.81070313 107.93023437 -127.4375 108.83203125 C-120.40201033 124.31010853 -107.05357392 136.01817524 -91.47265625 142.4296875 C-75.7669517 147.7018422 -59.0455676 147.18357229 -43.73828125 140.79296875 C-27.31587082 132.52168154 -14.45356343 119.26770397 -8.47265625 101.6796875 C-4.24665417 87.77132622 -4.75054832 71.51273464 -10.53515625 58.1796875 C-11.07849609 56.86677734 -11.07849609 56.86677734 -11.6328125 55.52734375 C-18.66830217 40.04926647 -32.01673858 28.34119976 -47.59765625 21.9296875 C-70.59090646 14.21121987 -94.49983155 19.13965016 -112.53515625 35.1796875 Z " fill="#218BE6" transform="translate(325.53515625,173.8203125)"/>
<path d="M0 0 C5.19044615 3.12996658 9.16052841 7.40007553 11.44140625 13.05859375 C11.7421875 16.30078125 11.7421875 16.30078125 11.75390625 19.93359375 C11.77066406 21.12726563 11.78742188 22.3209375 11.8046875 23.55078125 C11.14721295 29.89929891 8.24349405 34.00349738 3.44140625 38.05859375 C-2.54144887 42.24250382 -8.37276671 43.07614882 -15.55859375 42.05859375 C-21.73740291 40.26131535 -26.07126907 36.40064206 -29.55859375 31.05859375 C-32.4396717 24.97961828 -32.71773068 18.7171197 -30.68359375 12.296875 C-28.01439789 6.42288806 -25.13691146 3.26096133 -19.55859375 0.05859375 C-13.55997257 -1.94094664 -5.96862045 -2.19608783 0 0 Z " fill="#218BE6" transform="translate(372.55859375,128.94140625)"/>
</svg>
