<?xml version="1.0" standalone="no"?>
<!DOCTYPE svg PUBLIC "-//W3C//DTD SVG 20010904//EN"
 "http://www.w3.org/TR/2001/REC-SVG-20010904/DTD/svg10.dtd">
<svg version="1.0" xmlns="http://www.w3.org/2000/svg"
 width="512.000000pt" height="512.000000pt" viewBox="0 0 512.000000 512.000000"
 preserveAspectRatio="xMidYMid meet">

<g transform="translate(0.000000,512.000000) scale(0.100000,-0.100000)"
fill="#000000" stroke="none">
<path d="M1610 4470 c-234 -22 -457 -123 -631 -287 -97 -92 -161 -180 -224
-308 -62 -126 -92 -235 -105 -379 -12 -132 -12 -1740 0 -1872 13 -144 43 -253
105 -379 63 -128 127 -216 224 -308 183 -172 397 -266 661 -288 81 -7 442 -9
1015 -6 805 3 897 5 965 21 385 90 677 347 798 701 57 167 55 136 59 1104 3
548 0 939 -6 1011 -22 265 -115 477 -288 661 -92 97 -180 161 -308 224 -126
62 -235 92 -379 105 -121 11 -1764 11 -1886 0z m1975 -434 c172 -51 330 -183
403 -337 70 -148 67 -92 67 -1144 0 -891 -1 -954 -18 -1015 -49 -173 -182
-334 -338 -408 -148 -70 -93 -67 -1139 -67 -1046 0 -991 -3 -1139 67 -120 57
-232 169 -289 289 -70 148 -67 92 -67 1144 0 1064 -4 1002 73 1150 49 95 172
218 267 267 65 34 149 61 220 71 17 2 451 4 965 3 868 -2 939 -3 995 -20z"/>
<path d="M3589 3830 c-53 -9 -100 -40 -134 -89 -27 -38 -30 -51 -30 -115 0
-84 22 -127 90 -174 34 -23 50 -27 112 -27 63 0 76 3 115 30 94 67 120 197 56
288 -47 66 -129 100 -209 87z"/>
<path d="M2373 3605 c-434 -79 -782 -429 -858 -864 -113 -644 390 -1241 1045
-1241 655 0 1158 597 1045 1241 -76 438 -426 788 -864 864 -101 18 -270 18
-368 0z m399 -437 c189 -71 323 -205 396 -396 24 -61 26 -80 26 -212 0 -132
-2 -151 -26 -212 -72 -190 -206 -324 -396 -396 -61 -24 -80 -26 -212 -26 -132
0 -151 2 -212 26 -190 72 -326 209 -396 396 -33 90 -42 266 -18 362 58 230
235 411 466 475 88 24 286 15 372 -17z"/>
</g>
</svg>
